<svg height='200' width='200'  fill="#000000" xmlns="http://www.w3.org/2000/svg" xmlns:xlink="http://www.w3.org/1999/xlink" version="1.1" x="0px" y="0px" viewBox="0 0 100 100" enable-background="new 0 0 100 100" xml:space="preserve"><g><path d="M31.482,14.257l1.25,0.541l-0.106,0.839c-0.479,0.082-0.843,0.498-0.843,1c0,0.452,0.293,0.834,0.703,0.964l-0.759,10.625   c-0.031,0.443,0.058,1.151,0.198,1.573l0.615,1.847c0.141,0.422,0.37,0.422,0.511,0l0.616-1.847   c0.141-0.421,0.229-1.129,0.198-1.573l-0.759-10.625c0.406-0.131,0.704-0.512,0.704-0.964c0-0.502-0.365-0.918-0.846-1l-0.098-0.78   l2.886,1.249l1.412,0.611v5.315c-0.161,0.583-0.299,1.176-0.387,1.787c-0.101,0.697-0.152,1.41-0.152,2.136   c0,0.296,0.011,0.587,0.027,0.878c0.025,0.425,0.065,0.845,0.125,1.258c0.009,0.126,0.021,0.251,0.032,0.376   c0.843,9.544,6.426,16.917,13.19,16.917c6.762,0,12.346-7.374,13.19-16.917c0.012-0.125,0.021-0.25,0.032-0.376   c0.06-0.414,0.1-0.833,0.124-1.258c0.017-0.291,0.028-0.582,0.028-0.878c0-0.726-0.053-1.439-0.152-2.136   c-0.089-0.61-0.226-1.201-0.386-1.782v-5.321l1.412-0.611l4.269-1.849c1.117-0.483,1.117-1.273,0-1.757L52.029,5.363   c-1.116-0.484-2.942-0.484-4.06,0L31.482,12.5C30.365,12.983,30.365,13.773,31.482,14.257z"></path><path d="M73.619,93.031H26.381c-0.543,0-0.984,0.44-0.984,0.984c0,0.543,0.44,0.984,0.984,0.984h47.238   c0.543,0,0.984-0.441,0.984-0.984C74.604,93.472,74.162,93.031,73.619,93.031z"></path><path d="M76.058,57.485c-1.626-7.311-7.827-12.898-15.449-13.594C60.539,47.078,55.815,49.65,50,49.65   c-5.818,0-10.54-2.572-10.609-5.759c-7.621,0.696-13.823,6.284-15.449,13.594c-2.635,0.004-4.778,2.148-4.778,4.785v0.112   l0.02,0.11l4.324,25.082c0.064,2.582,2.186,4.664,4.784,4.664H71.71c2.598,0,4.72-2.081,4.784-4.664l4.323-25.082l0.02-0.111   v-0.111C80.837,59.633,78.693,57.488,76.058,57.485z M75.183,87.453c0,1.919-1.556,3.474-3.473,3.474H28.291   c-1.918,0-3.473-1.555-3.473-3.474l-4.342-25.183c0-1.918,1.556-3.474,3.473-3.474h52.102c1.919,0,3.474,1.556,3.474,3.474   L75.183,87.453z"></path><path d="M50,72.369c-1.138,0-2.061,0.921-2.061,2.057c0,1.141,0.923,2.061,2.061,2.061c1.137,0,2.059-0.92,2.059-2.061   C52.06,73.29,51.138,72.369,50,72.369z"></path></g></svg>